<svg width="30" height="30" fill="none" xmlns="http://www.w3.org/2000/svg"><path d="M24.923 10h1.327a2.5 2.5 0 012.5 2.5v5a2.5 2.5 0 01-2.5 2.5h-1.327c-.615 4.933-4.823 8.75-9.923 8.75v-2.5a7.5 7.5 0 007.5-7.5v-7.5a7.5 7.5 0 00-15 0V20H3.75a2.5 2.5 0 01-2.5-2.5v-5a2.5 2.5 0 012.5-2.5h1.327C5.692 5.067 9.9 1.25 15 1.25s9.308 3.817 9.923 8.75zM3.75 12.5v5H5v-5H3.75zm21.25 0v5h1.25v-5H25zM9.7 19.731l1.325-2.12A7.464 7.464 0 0015 18.75c1.46 0 2.823-.417 3.976-1.14l1.325 2.121A9.954 9.954 0 0115 21.25a9.953 9.953 0 01-5.3-1.519z" fill="#DC2222"/></svg>