<svg width="30" height="30" fill="none" xmlns="http://www.w3.org/2000/svg"><path d="M4.174 21.25a12.521 12.521 0 01-1.222-2.907 3.75 3.75 0 00.002-6.684 12.487 12.487 0 013.127-5.421 3.75 3.75 0 005.79-3.343c2.08-.54 4.235-.52 6.258.003a3.75 3.75 0 005.79 3.34 12.523 12.523 0 011.906 2.512c.54.936.946 1.913 1.223 2.908a3.75 3.75 0 00-.003 6.683 12.487 12.487 0 01-3.127 5.422 3.75 3.75 0 00-5.789 3.343c-2.081.539-4.236.52-6.259-.004a3.75 3.75 0 00-5.789-3.339 12.526 12.526 0 01-1.907-2.513zm7.076.246a6.24 6.24 0 012.813 3.462c.623.059 1.25.06 1.873.002a6.24 6.24 0 012.814-3.464 6.241 6.241 0 014.407-.705c.361-.51.674-1.054.934-1.623A6.24 6.24 0 0122.5 15a6.24 6.24 0 011.591-4.167 10.201 10.201 0 00-.937-1.622 6.241 6.241 0 01-4.404-.706 6.241 6.241 0 01-2.814-3.462 9.986 9.986 0 00-1.872-.002 6.242 6.242 0 01-2.814 3.464 6.241 6.241 0 01-4.407.705 9.986 9.986 0 00-.935 1.623A6.241 6.241 0 017.5 15a6.24 6.24 0 01-1.592 4.168 10.2 10.2 0 00.937 1.622 6.241 6.241 0 014.405.706zM15 18.75a3.75 3.75 0 110-7.5 3.75 3.75 0 010 7.5zm0-2.5a1.25 1.25 0 100-2.5 1.25 1.25 0 000 2.5z" fill="#DC2222"/></svg>