<svg width="30" height="30" fill="none" xmlns="http://www.w3.org/2000/svg"><path d="M14.839 3.835a3.486 3.486 0 013.804-.04l4.828 3.072h1.986c.642 0 1.162.52 1.162 1.161v10.458c0 .641-.52 1.162-1.162 1.162h-1.766a3.08 3.08 0 01-1.492 2.845l-5.918 3.551a2.325 2.325 0 01-2.406-.009 2.325 2.325 0 01-2.975.085l-5.973-4.693a2.325 2.325 0 01-.656-2.843 2.324 2.324 0 01-.89-1.828V8.028c0-.641.52-1.161 1.162-1.161h5.748l4.548-3.032zM5.905 16.912l.804-.704a3.486 3.486 0 014.875.279l3.14 3.453a3.486 3.486 0 01.46 4.052l5.819-3.492a.763.763 0 00.323-.918l-5.143-7.202a1.162 1.162 0 00-1.28-.437l-2.888.866a3.486 3.486 0 01-3.466-.874l-.34-.34a2.32 2.32 0 01-.553-2.405H5.705v7.566l.2.156zM17.396 5.755a1.162 1.162 0 00-1.268.013L9.852 9.952l.34.34c.303.302.746.414 1.156.291l2.887-.866a3.486 3.486 0 013.838 1.313l4.496 6.294h1.726V9.19h-.824c-.442 0-.874-.126-1.247-.363l-4.828-3.072zM8.24 17.957l-1.878 1.642 5.973 4.694.818-1.432c.25-.437.19-.985-.149-1.358l-3.14-3.453a1.162 1.162 0 00-1.624-.093z" fill="#484F55"/></svg>