<svg width="30" height="30" viewBox="0 0 30 30" fill="none" xmlns="http://www.w3.org/2000/svg">
<path d="M4.17432 21.2504C3.63401 20.3145 3.22846 19.3379 2.95166 18.3427C4.16725 17.7225 4.99965 16.4586 4.99965 15.0004C4.99965 13.5432 4.1685 12.2801 2.95441 11.6594C3.51281 9.64576 4.57321 7.77046 6.08092 6.23763C7.22587 6.98032 8.73669 7.0693 9.99965 6.34012C11.2626 5.61095 11.941 4.25806 11.8702 2.89517C13.9516 2.35587 16.1059 2.37517 18.1289 2.8984C18.0594 4.2602 18.7376 5.61152 19.9996 6.34012C21.2626 7.06927 22.7734 6.98032 23.9182 6.23771C24.6416 6.97495 25.2846 7.81451 25.825 8.75038C26.3652 9.68624 26.7709 10.6629 27.0476 11.658C25.832 12.2782 24.9996 13.5421 24.9996 15.0004C24.9996 16.4576 25.8307 17.7206 27.0449 18.3414C26.4865 20.355 25.4261 22.2302 23.9184 23.7631C22.7734 23.0205 21.2626 22.9315 19.9996 23.6606C18.7366 24.3897 18.0584 25.7427 18.129 27.1056C16.0477 27.6449 13.8935 27.6256 11.8704 27.1024C11.9399 25.7405 11.2616 24.3892 9.99965 23.6606C8.73672 22.9315 7.22599 23.0204 6.08105 23.763C5.35771 23.0257 4.71465 22.1862 4.17432 21.2504ZM11.2496 21.4956C12.6139 22.2832 13.5936 23.5285 14.0629 24.9575C14.6857 25.0167 15.3127 25.0176 15.9357 24.9595C16.4047 23.5297 17.3847 22.2836 18.7496 21.4956C20.1145 20.7075 21.6837 20.482 23.1565 20.7906C23.5182 20.2801 23.831 19.7366 24.0911 19.1676C23.0882 18.0467 22.4996 16.5756 22.4996 15.0004C22.4996 13.4251 23.0882 11.9541 24.0911 10.8332C23.961 10.5507 23.8172 10.2729 23.6599 10.0004C23.5025 9.72786 23.3337 9.46447 23.1541 9.21065C21.6821 9.51857 20.1139 9.2928 18.7496 8.50518C17.3854 7.71756 16.4057 6.47222 15.9364 5.04331C15.3136 4.98405 14.6865 4.9832 14.0636 5.04127C13.5945 6.47101 12.6145 7.71717 11.2496 8.50518C9.88475 9.29321 8.31556 9.5188 6.84285 9.21016C6.48106 9.72063 6.16829 10.2641 5.9082 10.8331C6.91101 11.954 7.49965 13.4251 7.49965 15.0004C7.49965 16.5756 6.91104 18.0466 5.9082 19.1675C6.03834 19.45 6.18205 19.7279 6.3394 20.0004C6.49673 20.2729 6.6655 20.5362 6.84515 20.7901C8.31721 20.4822 9.88547 20.708 11.2496 21.4956ZM14.9996 18.7504C12.9286 18.7504 11.2496 17.0715 11.2496 15.0004C11.2496 12.9294 12.9286 11.2504 14.9996 11.2504C17.0707 11.2504 18.7496 12.9294 18.7496 15.0004C18.7496 17.0715 17.0707 18.7504 14.9996 18.7504ZM14.9996 16.2504C15.69 16.2504 16.2496 15.6907 16.2496 15.0004C16.2496 14.31 15.69 13.7504 14.9996 13.7504C14.3092 13.7504 13.7496 14.31 13.7496 15.0004C13.7496 15.6907 14.3092 16.2504 14.9996 16.2504Z" fill="#DC2222"/>
</svg>
