<svg width="30" height="30" viewBox="0 0 30 30" fill="none" xmlns="http://www.w3.org/2000/svg">
<path d="M14.8386 3.83464C15.9871 3.06901 17.4791 3.05314 18.6435 3.79416L23.4715 6.86651H25.457C26.0987 6.86651 26.6189 7.38672 26.6189 8.02842V18.4856C26.6189 19.1273 26.0987 19.6475 25.457 19.6475H23.6913C23.7604 20.7482 23.2418 21.8671 22.1987 22.4931L16.2806 26.044C15.5334 26.4921 14.606 26.4817 13.8746 26.0352C13.0609 26.7547 11.8083 26.834 10.8997 26.12L4.92653 21.4268C4.03603 20.7272 3.81084 19.5318 4.27064 18.5841C3.70908 18.1438 3.38086 17.4695 3.38086 16.7555V8.02849C3.38086 7.38679 3.90107 6.86658 4.54277 6.86658H10.2907L14.8386 3.83464ZM5.90528 16.9116L6.70936 16.208C8.13876 14.9572 10.3064 15.0811 11.584 16.4865L14.7237 19.9402C15.734 21.0516 15.9183 22.6843 15.1835 23.992L21.003 20.5004C21.33 20.3042 21.4483 19.9121 21.3264 19.5818L16.1825 12.3805C15.8935 11.9759 15.3793 11.8 14.9031 11.9429L12.0155 12.8092C10.7872 13.1776 9.45579 12.842 8.54905 11.9353L8.20887 11.5951C7.54889 10.9351 7.37822 9.99582 7.65595 9.19041H5.70469V16.7555L5.90528 16.9116ZM17.396 5.75469C17.0078 5.50768 16.5105 5.51297 16.1276 5.76818L9.85206 9.95189L10.1922 10.2921C10.4945 10.5943 10.9383 10.7062 11.3477 10.5834L14.2354 9.71707C15.6638 9.28853 17.2067 9.8162 18.0735 11.0298L22.5692 17.3237H24.2951V9.19034H23.4715C23.0295 9.19034 22.5967 9.06432 22.2239 8.82704L17.396 5.75469ZM8.23962 17.9568L6.36225 19.5995L12.3354 24.2927L13.1533 22.8614C13.4031 22.4243 13.3429 21.876 13.0042 21.5033L9.8645 18.0497C9.43862 17.5812 8.71608 17.5399 8.23962 17.9568Z" fill="#484F55"/>
</svg>
