<svg width="30" height="30" viewBox="0 0 30 30" fill="none" xmlns="http://www.w3.org/2000/svg">
<path d="M15 1.25L25.2711 3.53247C25.8431 3.65957 26.25 4.16684 26.25 4.75271V17.2361C26.25 19.7438 24.9967 22.0855 22.9102 23.4765L15 28.75L7.08975 23.4765C5.00326 22.0855 3.75 19.7438 3.75 17.2361V4.75271C3.75 4.16684 4.15691 3.65957 4.72884 3.53247L15 1.25ZM15 3.81099L6.25 5.75543V17.2361C6.25 18.9079 7.0855 20.469 8.4765 21.3964L15 25.7454L21.5235 21.3964C22.9145 20.469 23.75 18.9079 23.75 17.2361V5.75543L15 3.81099ZM20.5655 10.2773L22.3333 12.045L14.3782 20L9.07499 14.6967L10.8428 12.9289L14.3774 16.4636L20.5655 10.2773Z" fill="#DC2222"/>
</svg>
