<svg width="30" height="30" viewBox="0 0 30 30" fill="none" xmlns="http://www.w3.org/2000/svg">
<path d="M18.0206 10.3527H25.4571C26.7405 10.3527 27.7809 11.3931 27.7809 12.6765V15.1216C27.7809 15.4251 27.7214 15.7257 27.6059 16.0064L24.0105 24.7381C23.8312 25.1735 23.4069 25.4576 22.936 25.4576H3.38067C2.73896 25.4576 2.21875 24.9374 2.21875 24.2957V12.6765C2.21875 12.0348 2.73896 11.5146 3.38067 11.5146H7.42627C7.80381 11.5146 8.1578 11.3312 8.37552 11.0228L14.7119 2.04622C14.8775 1.81166 15.1896 1.73322 15.4463 1.86162L17.5542 2.91551C18.776 3.52648 19.4071 4.90635 19.0701 6.23027L18.0206 10.3527ZM9.19024 13.3591V23.1337H22.1579L25.4571 15.1216V12.6765H18.0206C16.5046 12.6765 15.3946 11.2485 15.7685 9.77941L16.8181 5.65697C16.8855 5.39218 16.7593 5.1162 16.5148 4.99401L15.7467 4.60992L10.274 12.3629C9.98365 12.7742 9.61249 13.1114 9.19024 13.3591ZM6.86641 13.8384H4.54258V23.1337H6.86641V13.8384Z" fill="#484F55"/>
</svg>
