<svg width="30" height="30" viewBox="0 0 30 30" fill="none" xmlns="http://www.w3.org/2000/svg">
<path d="M11.4729 21.9715C11.191 23.9422 9.4961 25.4572 7.44737 25.4572C5.39863 25.4572 3.70375 23.9422 3.42184 21.9715H2.21875V8.02849C2.21875 7.38679 2.73896 6.86658 3.38067 6.86658H19.6475C20.2892 6.86658 20.8094 7.38679 20.8094 8.02849V10.3523H24.2951L27.7809 15.0647V21.9715H25.4159C25.1339 23.9422 23.439 25.4572 21.3903 25.4572C19.3417 25.4572 17.6468 23.9422 17.3648 21.9715H11.4729ZM18.4856 9.19041H4.54258V18.5444C5.2807 17.7911 6.30946 17.3238 7.44737 17.3238C9.06963 17.3238 10.47 18.2737 11.1227 19.6476H17.715C17.9098 19.2375 18.1714 18.865 18.4856 18.5444V9.19041ZM20.8094 16.1619H25.4571V15.8308L23.1236 12.6762H20.8094V16.1619ZM21.3903 23.1334C22.1492 23.1334 22.7948 22.6484 23.034 21.9715C23.0982 21.7897 23.1332 21.5942 23.1332 21.3905C23.1332 20.428 22.3529 19.6476 21.3903 19.6476C20.4278 19.6476 19.6475 20.428 19.6475 21.3905C19.6475 21.5942 19.6824 21.7897 19.7467 21.9715C19.9859 22.6484 20.6315 23.1334 21.3903 23.1334ZM9.19024 21.3905C9.19024 20.428 8.40993 19.6476 7.44737 19.6476C6.4848 19.6476 5.7045 20.428 5.7045 21.3905C5.7045 21.5942 5.73945 21.7897 5.80366 21.9715C6.04293 22.6484 6.68851 23.1334 7.44737 23.1334C8.20623 23.1334 8.85181 22.6484 9.09107 21.9715C9.15529 21.7897 9.19024 21.5942 9.19024 21.3905Z" fill="#484F55"/>
</svg>
