<svg width="30" height="30" fill="none" xmlns="http://www.w3.org/2000/svg"><path d="M18.02 10.353h7.437a2.324 2.324 0 012.324 2.324v2.445c0 .303-.06.604-.175.884l-3.596 8.732a1.16 1.16 0 01-1.074.72H3.381c-.642 0-1.162-.52-1.162-1.162v-11.62c0-.641.52-1.161 1.162-1.161h4.045c.378 0 .732-.184.95-.492l6.336-8.977a.58.58 0 01.734-.184l2.108 1.054A2.905 2.905 0 0119.07 6.23l-1.05 4.123zm-8.83 3.006v9.775h12.968l3.3-8.012v-2.445H18.02a2.324 2.324 0 01-2.253-2.898l1.05-4.122a.58.58 0 00-.303-.663l-.768-.384-5.473 7.753a3.49 3.49 0 01-1.084.996zm-2.324.48H4.543v9.295h2.323v-9.296z" fill="#484F55"/></svg>