<svg width="30" height="30" fill="none" xmlns="http://www.w3.org/2000/svg"><path d="M11.473 21.971a4.068 4.068 0 01-8.051 0H2.219V8.028c0-.641.52-1.161 1.162-1.161h16.267c.641 0 1.161.52 1.161 1.161v2.324h3.486l3.486 4.713v6.906h-2.365a4.068 4.068 0 01-8.051 0h-5.892zm7.013-12.78H4.543v9.353a4.067 4.067 0 016.58 1.103h6.592c.195-.41.456-.782.77-1.103V9.19zm2.323 6.97h4.648v-.33l-2.333-3.155h-2.315v3.486zm.581 6.972a1.744 1.744 0 100-3.487 1.744 1.744 0 000 3.487zm-12.2-1.742a1.743 1.743 0 10-3.486 0 1.743 1.743 0 003.486 0z" fill="#484F55"/></svg>